<?xml version="1.0" encoding="utf-8"?>
<svg version="1.1" xmlns:xlink="http://www.w3.org/1999/xlink" width="84px" height="31px" xmlns="http://www.w3.org/2000/svg">
  <defs>
    <mask fill="white" id="clip733">
      <path d="M 0 16  L 0 5  C 0 2.20000000000005  2.19999999999999 0  5 0  L 35.7999999999993 0  L 51.7999999999993 0  L 69 0  C 71.8 0  74 2.20000000000005  74 5  L 74 16  C 74 18.8  71.8 21  69 21  L 5 21  C 2.19999999999999 21  0 18.8  0 16  Z " fill-rule="evenodd" />
    </mask>
    <filter x="145px" y="541px" width="84px" height="31px" filterUnits="userSpaceOnUse" id="filter734">
      <feOffset dx="2" dy="2" in="SourceAlpha" result="shadowOffsetInner" />
      <feGaussianBlur stdDeviation="2.5" in="shadowOffsetInner" result="shadowGaussian" />
      <feComposite in2="shadowGaussian" operator="atop" in="SourceAlpha" result="shadowComposite" />
      <feColorMatrix type="matrix" values="0 0 0 0 0  0 0 0 0 0  0 0 0 0 0  0 0 0 0.349019607843137 0  " in="shadowComposite" />
    </filter>
    <g id="widget735">
      <path d="M 0 16  L 0 5  C 0 2.20000000000005  2.19999999999999 0  5 0  L 35.7999999999993 0  L 51.7999999999993 0  L 69 0  C 71.8 0  74 2.20000000000005  74 5  L 74 16  C 74 18.8  71.8 21  69 21  L 5 21  C 2.19999999999999 21  0 18.8  0 16  Z " fill-rule="nonzero" fill="#fefefe" stroke="none" transform="matrix(1 0 0 1 148 544 )" />
      <path d="M 0 16  L 0 5  C 0 2.20000000000005  2.19999999999999 0  5 0  L 35.7999999999993 0  L 51.7999999999993 0  L 69 0  C 71.8 0  74 2.20000000000005  74 5  L 74 16  C 74 18.8  71.8 21  69 21  L 5 21  C 2.19999999999999 21  0 18.8  0 16  Z " stroke-width="2" stroke="#000000" fill="none" transform="matrix(1 0 0 1 148 544 )" mask="url(#clip733)" />
    </g>
  </defs>
  <g transform="matrix(1 0 0 1 -145 -541 )">
    <use xlink:href="#widget735" filter="url(#filter734)" />
    <use xlink:href="#widget735" />
  </g>
</svg>