<?xml version="1.0" encoding="utf-8"?>
<svg version="1.1" xmlns:xlink="http://www.w3.org/1999/xlink" width="59px" height="27px" xmlns="http://www.w3.org/2000/svg">
  <defs>
    <mask fill="white" id="clip739">
      <path d="M 0 12.952380952381  L 0 4.04761904761905  C 0 1.78095238095242  1.45675675675675 0  3.31081081081081 0  L 23.7054054054049 0  L 34.2999999999995 0  L 45.6891891891892 0  C 47.5432432432433 0  49 1.78095238095242  49 4.04761904761905  L 49 12.952380952381  C 49 15.2190476190476  47.5432432432433 17  45.6891891891892 17  L 3.31081081081081 17  C 1.45675675675675 17  0 15.2190476190476  0 12.952380952381  Z " fill-rule="evenodd" />
    </mask>
    <filter x="122px" y="128px" width="59px" height="27px" filterUnits="userSpaceOnUse" id="filter740">
      <feOffset dx="2" dy="2" in="SourceAlpha" result="shadowOffsetInner" />
      <feGaussianBlur stdDeviation="2.5" in="shadowOffsetInner" result="shadowGaussian" />
      <feComposite in2="shadowGaussian" operator="atop" in="SourceAlpha" result="shadowComposite" />
      <feColorMatrix type="matrix" values="0 0 0 0 0  0 0 0 0 0  0 0 0 0 0  0 0 0 0.349019607843137 0  " in="shadowComposite" />
    </filter>
    <g id="widget741">
      <path d="M 0 12.952380952381  L 0 4.04761904761905  C 0 1.78095238095242  1.45675675675675 0  3.31081081081081 0  L 23.7054054054049 0  L 34.2999999999995 0  L 45.6891891891892 0  C 47.5432432432433 0  49 1.78095238095242  49 4.04761904761905  L 49 12.952380952381  C 49 15.2190476190476  47.5432432432433 17  45.6891891891892 17  L 3.31081081081081 17  C 1.45675675675675 17  0 15.2190476190476  0 12.952380952381  Z " fill-rule="nonzero" fill="#fefefe" stroke="none" transform="matrix(1 0 0 1 125 131 )" />
      <path d="M 0 12.952380952381  L 0 4.04761904761905  C 0 1.78095238095242  1.45675675675675 0  3.31081081081081 0  L 23.7054054054049 0  L 34.2999999999995 0  L 45.6891891891892 0  C 47.5432432432433 0  49 1.78095238095242  49 4.04761904761905  L 49 12.952380952381  C 49 15.2190476190476  47.5432432432433 17  45.6891891891892 17  L 3.31081081081081 17  C 1.45675675675675 17  0 15.2190476190476  0 12.952380952381  Z " stroke-width="2" stroke="#000000" fill="none" transform="matrix(1 0 0 1 125 131 )" mask="url(#clip739)" />
    </g>
  </defs>
  <g transform="matrix(1 0 0 1 -122 -128 )">
    <use xlink:href="#widget741" filter="url(#filter740)" />
    <use xlink:href="#widget741" />
  </g>
</svg>