<?xml version="1.0" encoding="utf-8"?>
<svg version="1.1" xmlns:xlink="http://www.w3.org/1999/xlink" width="74px" height="21px" xmlns="http://www.w3.org/2000/svg">
  <defs>
    <mask fill="white" id="clip30">
      <path d="M 0 16  L 0 5  C 0 2.20000000000005  2.19999999999999 0  5 0  L 51.7999999999993 0  L 69 0  C 71.8 0  74 2.20000000000005  74 5  L 74 16  C 74 18.8  71.8 21  69 21  L 5 21  C 2.19999999999999 21  0 18.8  0 16  Z " fill-rule="evenodd" />
    </mask>
  </defs>
  <g transform="matrix(1 0 0 1 -150 -436 )">
    <path d="M 0 16  L 0 5  C 0 2.20000000000005  2.19999999999999 0  5 0  L 51.7999999999993 0  L 69 0  C 71.8 0  74 2.20000000000005  74 5  L 74 16  C 74 18.8  71.8 21  69 21  L 5 21  C 2.19999999999999 21  0 18.8  0 16  Z " fill-rule="nonzero" fill="#169bd5" stroke="none" transform="matrix(1 0 0 1 150 436 )" />
    <path d="M 0 16  L 0 5  C 0 2.20000000000005  2.19999999999999 0  5 0  L 51.7999999999993 0  L 69 0  C 71.8 0  74 2.20000000000005  74 5  L 74 16  C 74 18.8  71.8 21  69 21  L 5 21  C 2.19999999999999 21  0 18.8  0 16  Z " stroke-width="2" stroke="#000000" fill="none" transform="matrix(1 0 0 1 150 436 )" mask="url(#clip30)" />
  </g>
</svg>