<?xml version="1.0" encoding="utf-8"?>
<svg version="1.1" xmlns:xlink="http://www.w3.org/1999/xlink" width="124px" height="34px" xmlns="http://www.w3.org/2000/svg">
  <defs>
    <mask fill="white" id="clip719">
      <path d="M 0 25.9047619047619  L 0 8.09523809523809  C 0 3.56190476190484  3.68648648648647 0  8.37837837837838 0  L 86.7999999999988 0  L 115.621621621622 0  C 120.313513513514 0  124 3.56190476190484  124 8.09523809523809  L 124 25.9047619047619  C 124 30.4380952380952  120.313513513514 34  115.621621621622 34  L 8.37837837837838 34  C 3.68648648648647 34  0 30.4380952380952  0 25.9047619047619  Z " fill-rule="evenodd" />
    </mask>
  </defs>
  <g transform="matrix(1 0 0 1 -194 -424 )">
    <path d="M 0 25.9047619047619  L 0 8.09523809523809  C 0 3.56190476190484  3.68648648648647 0  8.37837837837838 0  L 86.7999999999988 0  L 115.621621621622 0  C 120.313513513514 0  124 3.56190476190484  124 8.09523809523809  L 124 25.9047619047619  C 124 30.4380952380952  120.313513513514 34  115.621621621622 34  L 8.37837837837838 34  C 3.68648648648647 34  0 30.4380952380952  0 25.9047619047619  Z " fill-rule="nonzero" fill="#ffffff" stroke="none" transform="matrix(1 0 0 1 194 424 )" />
    <path d="M 0 25.9047619047619  L 0 8.09523809523809  C 0 3.56190476190484  3.68648648648647 0  8.37837837837838 0  L 86.7999999999988 0  L 115.621621621622 0  C 120.313513513514 0  124 3.56190476190484  124 8.09523809523809  L 124 25.9047619047619  C 124 30.4380952380952  120.313513513514 34  115.621621621622 34  L 8.37837837837838 34  C 3.68648648648647 34  0 30.4380952380952  0 25.9047619047619  Z " stroke-width="2" stroke="#000000" fill="none" transform="matrix(1 0 0 1 194 424 )" mask="url(#clip719)" />
  </g>
</svg>