<?xml version="1.0" encoding="utf-8"?>
<svg version="1.1" xmlns:xlink="http://www.w3.org/1999/xlink" width="90px" height="25px" xmlns="http://www.w3.org/2000/svg">
  <defs>
    <mask fill="white" id="clip720">
      <path d="M 0 19.047619047619  L 0 5.95238095238095  C 0 2.61904761904767  2.67567567567566 0  6.08108108108108 0  L 62.9999999999991 0  L 83.9189189189189 0  C 87.3243243243243 0  90 2.61904761904767  90 5.95238095238095  L 90 19.047619047619  C 90 22.3809523809523  87.3243243243243 25  83.9189189189189 25  L 6.08108108108108 25  C 2.67567567567566 25  0 22.3809523809523  0 19.047619047619  Z " fill-rule="evenodd" />
    </mask>
  </defs>
  <g transform="matrix(1 0 0 1 -120 -249 )">
    <path d="M 0 19.047619047619  L 0 5.95238095238095  C 0 2.61904761904767  2.67567567567566 0  6.08108108108108 0  L 62.9999999999991 0  L 83.9189189189189 0  C 87.3243243243243 0  90 2.61904761904767  90 5.95238095238095  L 90 19.047619047619  C 90 22.3809523809523  87.3243243243243 25  83.9189189189189 25  L 6.08108108108108 25  C 2.67567567567566 25  0 22.3809523809523  0 19.047619047619  Z " fill-rule="nonzero" fill="#169bd5" stroke="none" transform="matrix(1 0 0 1 120 249 )" />
    <path d="M 0 19.047619047619  L 0 5.95238095238095  C 0 2.61904761904767  2.67567567567566 0  6.08108108108108 0  L 62.9999999999991 0  L 83.9189189189189 0  C 87.3243243243243 0  90 2.61904761904767  90 5.95238095238095  L 90 19.047619047619  C 90 22.3809523809523  87.3243243243243 25  83.9189189189189 25  L 6.08108108108108 25  C 2.67567567567566 25  0 22.3809523809523  0 19.047619047619  Z " stroke-width="2" stroke="#000000" fill="none" transform="matrix(1 0 0 1 120 249 )" mask="url(#clip720)" />
  </g>
</svg>