<?xml version="1.0" encoding="utf-8"?>
<svg version="1.1" xmlns:xlink="http://www.w3.org/1999/xlink" width="120px" height="34px" xmlns="http://www.w3.org/2000/svg">
  <defs>
    <mask fill="white" id="clip722">
      <path d="M 0 25.9047619047619  L 0 8.09523809523809  C 0 3.56190476190484  3.56756756756755 0  8.10810810810811 0  L 83.9999999999988 0  L 111.891891891892 0  C 116.432432432432 0  120 3.56190476190484  120 8.09523809523809  L 120 25.9047619047619  C 120 30.4380952380952  116.432432432432 34  111.891891891892 34  L 8.10810810810811 34  C 3.56756756756755 34  0 30.4380952380952  0 25.9047619047619  Z " fill-rule="evenodd" />
    </mask>
  </defs>
  <g transform="matrix(1 0 0 1 -196 -1128 )">
    <path d="M 0 25.9047619047619  L 0 8.09523809523809  C 0 3.56190476190484  3.56756756756755 0  8.10810810810811 0  L 83.9999999999988 0  L 111.891891891892 0  C 116.432432432432 0  120 3.56190476190484  120 8.09523809523809  L 120 25.9047619047619  C 120 30.4380952380952  116.432432432432 34  111.891891891892 34  L 8.10810810810811 34  C 3.56756756756755 34  0 30.4380952380952  0 25.9047619047619  Z " fill-rule="nonzero" fill="#ffffff" stroke="none" transform="matrix(1 0 0 1 196 1128 )" />
    <path d="M 0 25.9047619047619  L 0 8.09523809523809  C 0 3.56190476190484  3.56756756756755 0  8.10810810810811 0  L 83.9999999999988 0  L 111.891891891892 0  C 116.432432432432 0  120 3.56190476190484  120 8.09523809523809  L 120 25.9047619047619  C 120 30.4380952380952  116.432432432432 34  111.891891891892 34  L 8.10810810810811 34  C 3.56756756756755 34  0 30.4380952380952  0 25.9047619047619  Z " stroke-width="2" stroke="#000000" fill="none" transform="matrix(1 0 0 1 196 1128 )" mask="url(#clip722)" />
  </g>
</svg>