<?xml version="1.0" encoding="utf-8"?>
<svg version="1.1" xmlns:xlink="http://www.w3.org/1999/xlink" width="87px" height="42px" xmlns="http://www.w3.org/2000/svg">
  <defs>
    <mask fill="white" id="clip728">
      <path d="M 0 24.3809523809524  L 0 7.61904761904762  C 0 3.35238095238102  2.28918918918918 0  5.2027027027027 0  L 37.2513513513506 0  L 53.8999999999992 0  L 71.7972972972973 0  C 74.7108108108108 0  77 3.35238095238102  77 7.61904761904762  L 77 24.3809523809524  C 77 28.647619047619  74.7108108108108 32  71.7972972972973 32  L 5.2027027027027 32  C 2.28918918918918 32  0 28.647619047619  0 24.3809523809524  Z " fill-rule="evenodd" />
    </mask>
    <filter x="140px" y="587px" width="87px" height="42px" filterUnits="userSpaceOnUse" id="filter729">
      <feOffset dx="2" dy="2" in="SourceAlpha" result="shadowOffsetInner" />
      <feGaussianBlur stdDeviation="2.5" in="shadowOffsetInner" result="shadowGaussian" />
      <feComposite in2="shadowGaussian" operator="atop" in="SourceAlpha" result="shadowComposite" />
      <feColorMatrix type="matrix" values="0 0 0 0 0  0 0 0 0 0  0 0 0 0 0  0 0 0 0.349019607843137 0  " in="shadowComposite" />
    </filter>
    <g id="widget730">
      <path d="M 0 24.3809523809524  L 0 7.61904761904762  C 0 3.35238095238102  2.28918918918918 0  5.2027027027027 0  L 37.2513513513506 0  L 53.8999999999992 0  L 71.7972972972973 0  C 74.7108108108108 0  77 3.35238095238102  77 7.61904761904762  L 77 24.3809523809524  C 77 28.647619047619  74.7108108108108 32  71.7972972972973 32  L 5.2027027027027 32  C 2.28918918918918 32  0 28.647619047619  0 24.3809523809524  Z " fill-rule="nonzero" fill="#fefefe" stroke="none" transform="matrix(1 0 0 1 143 590 )" />
      <path d="M 0 24.3809523809524  L 0 7.61904761904762  C 0 3.35238095238102  2.28918918918918 0  5.2027027027027 0  L 37.2513513513506 0  L 53.8999999999992 0  L 71.7972972972973 0  C 74.7108108108108 0  77 3.35238095238102  77 7.61904761904762  L 77 24.3809523809524  C 77 28.647619047619  74.7108108108108 32  71.7972972972973 32  L 5.2027027027027 32  C 2.28918918918918 32  0 28.647619047619  0 24.3809523809524  Z " stroke-width="2" stroke="#000000" fill="none" transform="matrix(1 0 0 1 143 590 )" mask="url(#clip728)" />
    </g>
  </defs>
  <g transform="matrix(1 0 0 1 -140 -587 )">
    <use xlink:href="#widget730" filter="url(#filter729)" />
    <use xlink:href="#widget730" />
  </g>
</svg>