<?xml version="1.0" encoding="utf-8"?>
<svg version="1.1" xmlns:xlink="http://www.w3.org/1999/xlink" width="104px" height="37px" xmlns="http://www.w3.org/2000/svg">
  <defs>
    <mask fill="white" id="clip725">
      <path d="M 0 20.5714285714286  L 0 6.42857142857143  C 0 2.82857142857149  2.79459459459458 0  6.35135135135135 0  L 65.7999999999991 0  L 87.6486486486486 0  C 91.2054054054054 0  94 2.82857142857149  94 6.42857142857143  L 94 20.5714285714286  C 94 24.1714285714285  91.2054054054054 27  87.6486486486486 27  L 6.35135135135135 27  C 2.79459459459458 27  0 24.1714285714285  0 20.5714285714286  Z " fill-rule="evenodd" />
    </mask>
    <filter x="215px" y="1630px" width="104px" height="37px" filterUnits="userSpaceOnUse" id="filter726">
      <feOffset dx="2" dy="2" in="SourceAlpha" result="shadowOffsetInner" />
      <feGaussianBlur stdDeviation="2.5" in="shadowOffsetInner" result="shadowGaussian" />
      <feComposite in2="shadowGaussian" operator="atop" in="SourceAlpha" result="shadowComposite" />
      <feColorMatrix type="matrix" values="0 0 0 0 0  0 0 0 0 0  0 0 0 0 0  0 0 0 0.349019607843137 0  " in="shadowComposite" />
    </filter>
    <g id="widget727">
      <path d="M 0 20.5714285714286  L 0 6.42857142857143  C 0 2.82857142857149  2.79459459459458 0  6.35135135135135 0  L 65.7999999999991 0  L 87.6486486486486 0  C 91.2054054054054 0  94 2.82857142857149  94 6.42857142857143  L 94 20.5714285714286  C 94 24.1714285714285  91.2054054054054 27  87.6486486486486 27  L 6.35135135135135 27  C 2.79459459459458 27  0 24.1714285714285  0 20.5714285714286  Z " fill-rule="nonzero" fill="#ffffff" stroke="none" transform="matrix(1 0 0 1 218 1633 )" />
      <path d="M 0 20.5714285714286  L 0 6.42857142857143  C 0 2.82857142857149  2.79459459459458 0  6.35135135135135 0  L 65.7999999999991 0  L 87.6486486486486 0  C 91.2054054054054 0  94 2.82857142857149  94 6.42857142857143  L 94 20.5714285714286  C 94 24.1714285714285  91.2054054054054 27  87.6486486486486 27  L 6.35135135135135 27  C 2.79459459459458 27  0 24.1714285714285  0 20.5714285714286  Z " stroke-width="2" stroke="#000000" fill="none" transform="matrix(1 0 0 1 218 1633 )" mask="url(#clip725)" />
    </g>
  </defs>
  <g transform="matrix(1 0 0 1 -215 -1630 )">
    <use xlink:href="#widget727" filter="url(#filter726)" />
    <use xlink:href="#widget727" />
  </g>
</svg>