<?xml version="1.0" encoding="utf-8"?>
<svg version="1.1" xmlns:xlink="http://www.w3.org/1999/xlink" width="124px" height="35px" xmlns="http://www.w3.org/2000/svg">
  <defs>
    <mask fill="white" id="clip718">
      <path d="M 0 26.6666666666667  L 0 8.33333333333333  C 0 3.66666666666674  3.68648648648647 0  8.37837837837838 0  L 86.7999999999988 0  L 115.621621621622 0  C 120.313513513514 0  124 3.66666666666674  124 8.33333333333333  L 124 26.6666666666667  C 124 31.3333333333333  120.313513513514 35  115.621621621622 35  L 8.37837837837838 35  C 3.68648648648647 35  0 31.3333333333333  0 26.6666666666667  Z " fill-rule="evenodd" />
    </mask>
  </defs>
  <g transform="matrix(1 0 0 1 -27 -423 )">
    <path d="M 0 26.6666666666667  L 0 8.33333333333333  C 0 3.66666666666674  3.68648648648647 0  8.37837837837838 0  L 86.7999999999988 0  L 115.621621621622 0  C 120.313513513514 0  124 3.66666666666674  124 8.33333333333333  L 124 26.6666666666667  C 124 31.3333333333333  120.313513513514 35  115.621621621622 35  L 8.37837837837838 35  C 3.68648648648647 35  0 31.3333333333333  0 26.6666666666667  Z " fill-rule="nonzero" fill="#ffffff" stroke="none" transform="matrix(1 0 0 1 27 423 )" />
    <path d="M 0 26.6666666666667  L 0 8.33333333333333  C 0 3.66666666666674  3.68648648648647 0  8.37837837837838 0  L 86.7999999999988 0  L 115.621621621622 0  C 120.313513513514 0  124 3.66666666666674  124 8.33333333333333  L 124 26.6666666666667  C 124 31.3333333333333  120.313513513514 35  115.621621621622 35  L 8.37837837837838 35  C 3.68648648648647 35  0 31.3333333333333  0 26.6666666666667  Z " stroke-width="2" stroke="#000000" fill="none" transform="matrix(1 0 0 1 27 423 )" mask="url(#clip718)" />
  </g>
</svg>