<?xml version="1.0" encoding="utf-8"?>
<svg version="1.1" xmlns:xlink="http://www.w3.org/1999/xlink" width="126px" height="35px" xmlns="http://www.w3.org/2000/svg">
  <defs>
    <mask fill="white" id="clip721">
      <path d="M 0 26.6666666666667  L 0 8.33333333333333  C 0 3.66666666666674  3.74594594594593 0  8.51351351351351 0  L 88.1999999999988 0  L 117.486486486486 0  C 122.254054054054 0  126 3.66666666666674  126 8.33333333333333  L 126 26.6666666666667  C 126 31.3333333333333  122.254054054054 35  117.486486486486 35  L 8.51351351351351 35  C 3.74594594594593 35  0 31.3333333333333  0 26.6666666666667  Z " fill-rule="evenodd" />
    </mask>
  </defs>
  <g transform="matrix(1 0 0 1 -101 -203 )">
    <path d="M 0 26.6666666666667  L 0 8.33333333333333  C 0 3.66666666666674  3.74594594594593 0  8.51351351351351 0  L 88.1999999999988 0  L 117.486486486486 0  C 122.254054054054 0  126 3.66666666666674  126 8.33333333333333  L 126 26.6666666666667  C 126 31.3333333333333  122.254054054054 35  117.486486486486 35  L 8.51351351351351 35  C 3.74594594594593 35  0 31.3333333333333  0 26.6666666666667  Z " fill-rule="nonzero" fill="#169bd5" stroke="none" transform="matrix(1 0 0 1 101 203 )" />
    <path d="M 0 26.6666666666667  L 0 8.33333333333333  C 0 3.66666666666674  3.74594594594593 0  8.51351351351351 0  L 88.1999999999988 0  L 117.486486486486 0  C 122.254054054054 0  126 3.66666666666674  126 8.33333333333333  L 126 26.6666666666667  C 126 31.3333333333333  122.254054054054 35  117.486486486486 35  L 8.51351351351351 35  C 3.74594594594593 35  0 31.3333333333333  0 26.6666666666667  Z " stroke-width="2" stroke="#000000" fill="none" transform="matrix(1 0 0 1 101 203 )" mask="url(#clip721)" />
  </g>
</svg>